<?xml version="1.0" encoding="UTF-8" standalone="no"?>
<!DOCTYPE svg PUBLIC "-//W3C//DTD SVG 1.1//EN" "http://www.w3.org/Graphics/SVG/1.1/DTD/svg11.dtd">
<!-- Generated by Microsoft Visio, SVG Export Questionary segmentation cordiates sort.svg Page-1 -->
<svg xmlns="http://www.w3.org/2000/svg" xmlns:xlink="http://www.w3.org/1999/xlink" xmlns:ev="http://www.w3.org/2001/xml-events"
		xmlns:v="http://schemas.microsoft.com/visio/2003/SVGExtensions/" width="8.5in" height="11in" viewBox="0 0 612 792"
		xml:space="preserve" color-interpolation-filters="sRGB" class="st9">
	<v:documentProperties v:langID="1033" v:viewMarkup="false">
		<v:userDefs>
			<v:ud v:nameU="msvNoAutoConnect" v:val="VT0(1):26"/>
		</v:userDefs>
	</v:documentProperties>

	<style type="text/css">
	<![CDATA[
		.st1 {fill:#ffffff;stroke:#000000;stroke-linecap:round;stroke-linejoin:round;stroke-width:0.75}
		.st2 {fill:#000000;font-family:Calibri;font-size:1.00001em}
		.st3 {font-size:1em}
		.st4 {stroke:#000000;stroke-linecap:round;stroke-linejoin:round;stroke-width:0.75}
		.st5 {fill:#ffffff;stroke:none;stroke-linecap:butt;stroke-width:7.2}
		.st6 {fill:#000000;font-family:Calibri;font-size:0.666664em}
		.st7 {fill:#ffffff;stroke:none;stroke-linecap:butt}
		.st8 {fill:#ffffff}
		.st9 {fill:none;fill-rule:evenodd;font-size:12px;overflow:visible;stroke-linecap:square;stroke-miterlimit:3}
	]]>
	</style>

	<g v:mID="0" v:index="1" v:groupContext="foregroundPage">
		<title>Page-1</title>
		<v:pageProperties v:drawingScale="1" v:pageScale="1" v:drawingUnits="19" v:shadowOffsetX="9" v:shadowOffsetY="-9"/>
		<v:layer v:name="Connector" v:index="0"/>
		<g id="shape1-1" v:mID="1" v:groupContext="shape" transform="translate(288,-756)">
			<title>Initial node</title>
			<desc>start</desc>
			<v:userDefs>
				<v:ud v:nameU="visVersion" v:prompt="" v:val="VT0(15):26"/>
			</v:userDefs>
			<v:textBlock v:margins="rect(4,4,4,4)"/>
			<v:textRect cx="9" cy="803.202" width="33.39" height="22.4037"/>
			<ellipse cx="9" cy="783" rx="9" ry="9" class="st1"/>
			<text x="-2.33" y="806.8" class="st2" v:langID="1033"><v:paragraph v:horizAlign="1"/><v:tabList/>start</text>		</g>
		<g id="shape2-4" v:mID="2" v:groupContext="shape" transform="translate(252,-657)">
			<title>Action</title>
			<desc>kernel = 50 rows = []</desc>
			<v:userDefs>
				<v:ud v:nameU="visVersion" v:prompt="" v:val="VT0(15):26"/>
			</v:userDefs>
			<v:textBlock v:margins="rect(4,4,4,4)"/>
			<v:textRect cx="54" cy="773.598" width="108" height="36.8038"/>
			<rect x="0" y="755.196" width="108" height="36.8038" rx="9" ry="9" class="st1"/>
			<text x="26.9" y="770" class="st2" v:langID="1033"><v:paragraph v:horizAlign="1"/><v:tabList/>kernel = 50 <v:newlineChar/><tspan
						x="32.73" dy="1.2em" class="st3">rows = []</tspan></text>		</g>
		<g id="shape3-8" v:mID="3" v:groupContext="shape" transform="translate(252,-612)">
			<title>Action.3</title>
			<desc>i = 0</desc>
			<v:userDefs>
				<v:ud v:nameU="visVersion" v:prompt="" v:val="VT0(15):26"/>
			</v:userDefs>
			<v:textBlock v:margins="rect(4,4,4,4)"/>
			<v:textRect cx="54" cy="774" width="108" height="36"/>
			<rect x="0" y="756" width="108" height="36" rx="9" ry="9" class="st1"/>
			<text x="43.88" y="777.6" class="st2" v:langID="1033"><v:paragraph v:horizAlign="1"/><v:tabList/>i = 0</text>		</g>
		<g id="shape4-11" v:mID="4" v:groupContext="shape" transform="translate(261,-99)">
			<title>Action.4</title>
			<desc>return rows</desc>
			<v:userDefs>
				<v:ud v:nameU="visVersion" v:prompt="" v:val="VT0(15):26"/>
			</v:userDefs>
			<v:textBlock v:margins="rect(4,4,4,4)"/>
			<v:textRect cx="54" cy="774" width="108" height="36"/>
			<rect x="0" y="756" width="108" height="36" rx="9" ry="9" class="st1"/>
			<text x="25.27" y="777.6" class="st2" v:langID="1033"><v:paragraph v:horizAlign="1"/><v:tabList/>return rows</text>		</g>
		<g id="shape5-14" v:mID="5" v:groupContext="shape" transform="translate(297,-162)">
			<title>Decision</title>
			<desc>i &#62; 2500</desc>
			<v:userDefs>
				<v:ud v:nameU="visVersion" v:prompt="" v:val="VT0(15):26"/>
			</v:userDefs>
			<v:textBlock v:margins="rect(4,4,4,4)"/>
			<v:textRect cx="18" cy="803.202" width="49.21" height="22.4037"/>
			<path d="M18 792 L36 774 L18 756 L0 774 L18 792 Z" class="st1"/>
			<text x="-1.24" y="806.8" class="st2" v:langID="1033"><v:paragraph v:horizAlign="1"/><v:tabList/>i &#62; 2500</text>		</g>
		<g id="shape6-17" v:mID="6" v:groupContext="shape" transform="translate(288,-225)">
			<title>Action.6</title>
			<desc>i = i + kernel</desc>
			<v:userDefs>
				<v:ud v:nameU="visVersion" v:prompt="" v:val="VT0(15):26"/>
			</v:userDefs>
			<v:textBlock v:margins="rect(4,4,4,4)"/>
			<v:textRect cx="54" cy="774" width="108" height="36"/>
			<rect x="0" y="756" width="108" height="36" rx="9" ry="9" class="st1"/>
			<text x="24.52" y="777.6" class="st2" v:langID="1033"><v:paragraph v:horizAlign="1"/><v:tabList/>i = i + kernel</text>		</g>
		<g id="shape7-20" v:mID="7" v:groupContext="shape" transform="translate(252,-697.902)">
			<title>Action.7</title>
			<desc>accept points</desc>
			<v:userDefs>
				<v:ud v:nameU="visVersion" v:prompt="" v:val="VT0(15):26"/>
			</v:userDefs>
			<v:textBlock v:margins="rect(4,4,4,4)"/>
			<v:textRect cx="54" cy="774" width="108" height="36"/>
			<rect x="0" y="756" width="108" height="36" rx="9" ry="9" class="st1"/>
			<text x="21.35" y="777.6" class="st2" v:langID="1033"><v:paragraph v:horizAlign="1"/><v:tabList/>accept points</text>		</g>
		<g id="shape8-23" v:mID="8" v:groupContext="shape" transform="translate(252,-557.598)">
			<title>Action.8</title>
			<desc>row = [] i = 0</desc>
			<v:userDefs>
				<v:ud v:nameU="visVersion" v:prompt="" v:val="VT0(15):26"/>
			</v:userDefs>
			<v:textBlock v:margins="rect(4,4,4,4)"/>
			<v:textRect cx="54" cy="773.598" width="108" height="36.8038"/>
			<rect x="0" y="755.196" width="108" height="36.8038" rx="9" ry="9" class="st1"/>
			<text x="35.07" y="770" class="st2" v:langID="1033"><v:paragraph v:horizAlign="1"/><v:tabList/>row = []<v:newlineChar/><tspan
						x="43.88" dy="1.2em" class="st3">i = 0</tspan></text>		</g>
		<g id="shape9-27" v:mID="9" v:groupContext="shape" v:layerMember="0" transform="translate(297,-180)">
			<title>Dynamic connector</title>
			<desc>yes</desc>
			<v:textBlock v:margins="rect(4,4,4,4)"/>
			<v:textRect cx="-58.5" cy="616.5" width="40" height="17.6036"/>
			<path d="M0 792 L-58.5 792 L-58.5 396 L-45 396" class="st4"/>
			<rect v:rectContext="textBkgnd" x="-63.8651" y="611.7" width="10.7303" height="9.59985" class="st5"/>
			<text x="-63.87" y="618.9" class="st6" v:langID="1033"><v:paragraph v:horizAlign="1"/><v:tabList/>yes</text>		</g>
		<g id="shape10-32" v:mID="10" v:groupContext="shape" transform="translate(324,-360)">
			<title>Decision.10</title>
			<desc>i &#62; points.length</desc>
			<v:userDefs>
				<v:ud v:nameU="visVersion" v:prompt="" v:val="VT0(15):26"/>
			</v:userDefs>
			<v:textBlock v:margins="rect(4,4,4,4)"/>
			<v:textRect cx="18" cy="803.202" width="89.31" height="22.4037"/>
			<path d="M18 792 L36 774 L18 756 L0 774 L18 792 Z" class="st1"/>
			<text x="-21.3" y="806.8" class="st2" v:langID="1033"><v:paragraph v:horizAlign="1"/><v:tabList/>i &#62; points.length</text>		</g>
		<g id="shape11-35" v:mID="11" v:groupContext="shape" transform="translate(252,-504)">
			<title>Action.11</title>
			<desc>x = points[i]</desc>
			<v:userDefs>
				<v:ud v:nameU="visVersion" v:prompt="" v:val="VT0(15):26"/>
			</v:userDefs>
			<v:textBlock v:margins="rect(4,4,4,4)"/>
			<v:textRect cx="54" cy="774" width="108" height="36"/>
			<rect x="0" y="756" width="108" height="36" rx="9" ry="9" class="st1"/>
			<text x="24.09" y="777.6" class="st2" v:langID="1033"><v:paragraph v:horizAlign="1"/><v:tabList/>x  = points[i]</text>		</g>
		<g id="shape13-38" v:mID="13" v:groupContext="shape" transform="translate(261,-278.196)">
			<title>Action.13</title>
			<desc>row = sort y cordiante of row push row to rows</desc>
			<v:userDefs>
				<v:ud v:nameU="visVersion" v:prompt="" v:val="VT0(15):26"/>
			</v:userDefs>
			<v:textBlock v:margins="rect(4,4,4,4)"/>
			<v:textRect cx="81" cy="773.598" width="162" height="36.8038"/>
			<rect x="0" y="755.196" width="162" height="36.8038" rx="9" ry="9" class="st1"/>
			<text x="10.12" y="770" class="st2" v:langID="1033"><v:paragraph v:horizAlign="1"/><v:tabList/>row = sort y cordiante of row<v:newlineChar/><tspan
						x="38.52" dy="1.2em" class="st3">push row to rows</tspan></text>		</g>
		<g id="shape14-42" v:mID="14" v:groupContext="shape" transform="translate(288,-441)">
			<title>Decision.14</title>
			<desc>x[1] &#60; i and x[1] &#62; i - kernel</desc>
			<v:userDefs>
				<v:ud v:nameU="visVersion" v:prompt="" v:val="VT0(15):26"/>
			</v:userDefs>
			<v:textBlock v:margins="rect(4,4,4,4)"/>
			<v:textRect cx="18" cy="803.202" width="139.83" height="22.4037"/>
			<path d="M18 792 L36 774 L18 756 L0 774 L18 792 Z" class="st1"/>
			<text x="-46.56" y="806.8" class="st2" v:langID="1033"><v:paragraph v:horizAlign="1"/><v:tabList/>x[1] &#60; i and x[1] &#62; i - kernel</text>		</g>
		<g id="shape15-45" v:mID="15" v:groupContext="shape" transform="translate(396,-405)">
			<title>Action.15</title>
			<desc>push x to row</desc>
			<v:userDefs>
				<v:ud v:nameU="visVersion" v:prompt="" v:val="VT0(15):26"/>
			</v:userDefs>
			<v:textBlock v:margins="rect(4,4,4,4)"/>
			<v:textRect cx="54" cy="774" width="108" height="36"/>
			<rect x="0" y="756" width="108" height="36" rx="9" ry="9" class="st1"/>
			<text x="20.81" y="777.6" class="st2" v:langID="1033"><v:paragraph v:horizAlign="1"/><v:tabList/>push x to row</text>		</g>
		<g id="shape16-48" v:mID="16" v:groupContext="shape" v:layerMember="0" transform="translate(324,-459)">
			<title>Dynamic connector.16</title>
			<desc>yes</desc>
			<v:textBlock v:margins="rect(4,4,4,4)"/>
			<v:textRect cx="72" cy="792" width="40" height="17.6036"/>
			<path d="M0 792 L126 792 L126 810" class="st4"/>
			<rect v:rectContext="textBkgnd" x="66.6349" y="787.2" width="10.7303" height="9.59985" class="st7"/>
			<text x="66.63" y="794.4" class="st6" v:langID="1033"><v:paragraph v:horizAlign="1"/><v:tabList/>yes</text>		</g>
		<g id="shape17-53" v:mID="17" v:groupContext="shape" v:layerMember="0" transform="translate(450,-405)">
			<title>Dynamic connector.17</title>
			<path d="M0 792 L0 819 L-90 819" class="st4"/>
		</g>
		<g id="shape18-56" v:mID="18" v:groupContext="shape" v:layerMember="0" transform="translate(306,-441)">
			<title>Dynamic connector.18</title>
			<desc>no</desc>
			<v:textBlock v:margins="rect(4,4,4,4)"/>
			<v:textRect cx="0" cy="832.5" width="40" height="17.6036"/>
			<path d="M0 792 L0 855 L18 855" class="st4"/>
			<rect v:rectContext="textBkgnd" x="-4.211" y="827.7" width="8.42184" height="9.59985" class="st7"/>
			<text x="-4.21" y="834.9" class="st6" v:langID="1033"><v:paragraph v:horizAlign="1"/><v:tabList/>no</text>		</g>
		<g id="shape19-61" v:mID="19" v:groupContext="shape" v:layerMember="0" transform="translate(324,-378)">
			<title>Dynamic connector.19</title>
			<desc>yes</desc>
			<v:textBlock v:margins="rect(4,4,4,4)"/>
			<v:textRect cx="-94.5" cy="756" width="40" height="17.6036"/>
			<path d="M0 792 L-82.5 792 A3 3 -180 0 0 -88.5 792 L-94.5 792 L-94.5 648 L-88.5 648 A3 3 0 0 1 -82.5 648 L-72 648"
					class="st4"/>
			<rect v:rectContext="textBkgnd" x="-99.8651" y="751.2" width="10.7303" height="9.59985" class="st7"/>
			<text x="-99.87" y="758.4" class="st6" v:langID="1033"><v:paragraph v:horizAlign="1"/><v:tabList/>yes</text>		</g>
		<g id="shape20-66" v:mID="20" v:groupContext="shape" v:layerMember="0" transform="translate(297,-504)">
			<title>Dynamic connector.20</title>
			<path d="M9 792 L9 819" class="st4"/>
		</g>
		<g id="shape22-69" v:mID="22" v:groupContext="shape" v:layerMember="0" transform="translate(333,-360)">
			<title>Dynamic connector.22</title>
			<desc>no</desc>
			<v:textBlock v:margins="rect(4,4,4,4)"/>
			<v:textRect cx="9" cy="814.5" width="40" height="17.6036"/>
			<path d="M9 792 L9 837" class="st4"/>
			<rect v:rectContext="textBkgnd" x="4.789" y="809.7" width="8.42184" height="9.59985" class="st7"/>
			<text x="4.79" y="816.9" class="st6" v:langID="1033"><v:paragraph v:horizAlign="1"/><v:tabList/>no</text>		</g>
		<g id="shape23-74" v:mID="23" v:groupContext="shape" v:layerMember="0" transform="translate(333,-278.598)">
			<title>Dynamic connector.23</title>
			<path d="M9 792.4 L9 809.6" class="st4"/>
		</g>
		<g id="shape24-77" v:mID="24" v:groupContext="shape" v:layerMember="0" transform="translate(342,-225)">
			<title>Dynamic connector.24</title>
			<path d="M0 792 L0 805.5 L-27 805.5 L-27 819" class="st4"/>
		</g>
		<g id="shape25-80" v:mID="25" v:groupContext="shape" v:layerMember="0" transform="translate(306,-162)">
			<title>Dynamic connector.25</title>
			<desc>no</desc>
			<v:textBlock v:margins="rect(4,4,4,4)"/>
			<v:textRect cx="9" cy="805.5" width="40" height="17.6036"/>
			<path d="M9 792 L9 819" class="st4"/>
			<rect v:rectContext="textBkgnd" x="4.789" y="800.7" width="8.42184" height="9.59985" class="st7"/>
			<text x="4.79" y="807.9" class="st6" v:langID="1033"><v:paragraph v:horizAlign="1"/><v:tabList/>no</text>		</g>
		<g id="shape26-85" v:mID="26" v:groupContext="shape" transform="translate(297,-36)">
			<title>Final node</title>
			<desc>end</desc>
			<v:userDefs>
				<v:ud v:nameU="visVersion" v:prompt="" v:val="VT0(15):26"/>
			</v:userDefs>
			<v:textBlock v:margins="rect(4,4,4,4)"/>
			<v:textRect cx="18" cy="803.202" width="29.3" height="22.4037"/>
			<path d="M32.4 774 A14.4 14.4 -180 1 0 3.6 774 A14.4 14.4 -180 1 0 32.4 774 Z" class="st8"/>
			<path d="M36 774 A18 18 -180 1 0 0 774 A18 18 -180 1 0 36 774" class="st4"/>
			<path d="M32.4 774 A14.4 14.4 -180 1 0 3.6 774 A14.4 14.4 -180 1 0 32.4 774" class="st4"/>
			<text x="8.71" y="806.8" class="st2" v:langID="1033"><v:paragraph v:horizAlign="1"/><v:tabList/>end</text>		</g>
		<g id="shape27-90" v:mID="27" v:groupContext="shape" v:layerMember="0" transform="translate(306,-99)">
			<title>Dynamic connector.27</title>
			<path d="M9 792 L9 819" class="st4"/>
		</g>
		<g id="shape28-93" v:mID="28" v:groupContext="shape" v:layerMember="0" transform="translate(292.5,-756)">
			<title>Dynamic connector.28</title>
			<path d="M4.5 792 L4.5 798.75 L13.5 798.75 L13.5 814.1" class="st4"/>
		</g>
		<g id="shape29-96" v:mID="29" v:groupContext="shape" v:layerMember="0" transform="translate(297,-704.853)">
			<title>Dynamic connector.29</title>
			<path d="M9 798.95 L9 803.05" class="st4"/>
		</g>
		<g id="shape30-99" v:mID="30" v:groupContext="shape" v:layerMember="0" transform="translate(297,-661.5)">
			<title>Dynamic connector.30</title>
			<path d="M9 796.5 L9 805.5" class="st4"/>
		</g>
		<g id="shape31-102" v:mID="31" v:groupContext="shape" v:layerMember="0" transform="translate(297,-612.201)">
			<title>Dynamic connector.31</title>
			<path d="M9 792.2 L9 809.8" class="st4"/>
		</g>
		<g id="shape32-105" v:mID="32" v:groupContext="shape" v:layerMember="0" transform="translate(297,-557.799)">
			<title>Dynamic connector.32</title>
			<path d="M9 792.2 L9 809.8" class="st4"/>
		</g>
	</g>
</svg>
