<?xml version="1.0" encoding="UTF-8" standalone="no"?>
<!DOCTYPE svg PUBLIC "-//W3C//DTD SVG 1.1//EN" "http://www.w3.org/Graphics/SVG/1.1/DTD/svg11.dtd">
<!-- Generated by Microsoft Visio, SVG Export Qustionary segmentation activity diagram.svg Page-1 -->
<svg xmlns="http://www.w3.org/2000/svg" xmlns:xlink="http://www.w3.org/1999/xlink" xmlns:ev="http://www.w3.org/2001/xml-events"
		xmlns:v="http://schemas.microsoft.com/visio/2003/SVGExtensions/" width="8.5in" height="21.5in" viewBox="0 0 612 1548"
		xml:space="preserve" color-interpolation-filters="sRGB" class="st9">
	<v:documentProperties v:langID="1033" v:viewMarkup="false">
		<v:userDefs>
			<v:ud v:nameU="msvNoAutoConnect" v:val="VT0(1):26"/>
		</v:userDefs>
	</v:documentProperties>

	<style type="text/css">
	<![CDATA[
		.st1 {fill:#ffffff;stroke:#000000;stroke-linecap:round;stroke-linejoin:round;stroke-width:0.75}
		.st2 {fill:#ffffff}
		.st3 {stroke:#000000;stroke-linecap:round;stroke-linejoin:round;stroke-width:0.75}
		.st4 {fill:#000000;font-family:Calibri;font-size:1.00001em}
		.st5 {font-size:1em}
		.st6 {font-family:Times New Roman;font-size:1.16665em}
		.st7 {fill:#ffffff;stroke:none;stroke-linecap:butt;stroke-width:7.2}
		.st8 {fill:#000000;font-family:Calibri;font-size:0.666664em}
		.st9 {fill:none;fill-rule:evenodd;font-size:12px;overflow:visible;stroke-linecap:square;stroke-miterlimit:3}
	]]>
	</style>

	<g v:mID="0" v:index="1" v:groupContext="foregroundPage">
		<title>Page-1</title>
		<v:pageProperties v:drawingScale="1" v:pageScale="1" v:drawingUnits="19" v:shadowOffsetX="9" v:shadowOffsetY="-9"/>
		<v:layer v:name="Connector" v:index="0"/>
		<g id="shape1-1" v:mID="1" v:groupContext="shape" transform="translate(288,-1494)">
			<title>Initial node</title>
			<v:userDefs>
				<v:ud v:nameU="visVersion" v:prompt="" v:val="VT0(15):26"/>
			</v:userDefs>
			<ellipse cx="18" cy="1530" rx="18" ry="18" class="st1"/>
		</g>
		<g id="shape2-3" v:mID="2" v:groupContext="shape" transform="translate(288,-351)">
			<title>Final node</title>
			<v:userDefs>
				<v:ud v:nameU="visVersion" v:prompt="" v:val="VT0(15):26"/>
			</v:userDefs>
			<path d="M32.4 1530 A14.4 14.4 -180 1 0 3.6 1530 A14.4 14.4 -180 1 0 32.4 1530 Z" class="st2"/>
			<path d="M36 1530 A18 18 -180 1 0 0 1530 A18 18 -180 1 0 36 1530" class="st3"/>
			<path d="M32.4 1530 A14.4 14.4 -180 1 0 3.6 1530 A14.4 14.4 -180 1 0 32.4 1530" class="st3"/>
		</g>
		<g id="shape3-7" v:mID="3" v:groupContext="shape" transform="translate(252,-1430.6)">
			<title>Action</title>
			<desc>Accept scanned image</desc>
			<v:userDefs>
				<v:ud v:nameU="visVersion" v:prompt="" v:val="VT0(15):26"/>
			</v:userDefs>
			<v:textBlock v:margins="rect(4,4,4,4)"/>
			<v:textRect cx="54" cy="1529.6" width="108" height="36.8038"/>
			<rect x="0" y="1511.2" width="108" height="36.8038" rx="9" ry="9" class="st1"/>
			<text x="15.75" y="1526" class="st4" v:langID="1033"><v:paragraph v:horizAlign="1"/><v:tabList/>Accept scanned <tspan
						x="39.15" dy="1.2em" class="st5">image</tspan></text>		</g>
		<g id="shape4-11" v:mID="4" v:groupContext="shape" transform="translate(252,-1377)">
			<title>Action.4</title>
			<desc>Resize image1200px keep ratio</desc>
			<v:userDefs>
				<v:ud v:nameU="visVersion" v:prompt="" v:val="VT0(15):26"/>
			</v:userDefs>
			<v:textBlock v:margins="rect(4,4,4,4)"/>
			<v:textRect cx="54" cy="1529.6" width="108" height="36.8038"/>
			<rect x="0" y="1511.2" width="108" height="36.8038" rx="9" ry="9" class="st1"/>
			<text x="4.55" y="1526" class="st4" v:langID="1033"><v:paragraph v:horizAlign="1"/><v:tabList/>Resize image1200px <tspan
						x="29.28" dy="1.2em" class="st5">keep ratio</tspan></text>		</g>
		<g id="shape5-15" v:mID="5" v:groupContext="shape" transform="translate(252,-1323.4)">
			<title>Action.5</title>
			<desc>Noise removal with gaussian blur</desc>
			<v:userDefs>
				<v:ud v:nameU="visVersion" v:prompt="" v:val="VT0(15):26"/>
			</v:userDefs>
			<v:textBlock v:margins="rect(4,4,4,4)"/>
			<v:textRect cx="54" cy="1529.6" width="108" height="36.8038"/>
			<rect x="0" y="1511.2" width="108" height="36.8038" rx="9" ry="9" class="st1"/>
			<text x="6.72" y="1526" class="st4" v:langID="1033"><v:paragraph v:horizAlign="1"/><v:tabList/>Noise removal with <tspan
						x="21.92" dy="1.2em" class="st5">gaussian blur</tspan></text>		</g>
		<g id="shape6-19" v:mID="6" v:groupContext="shape" transform="translate(252,-1269.8)">
			<title>Action.6</title>
			<desc>Apply inverse OTSU thresh</desc>
			<v:userDefs>
				<v:ud v:nameU="visVersion" v:prompt="" v:val="VT0(15):26"/>
			</v:userDefs>
			<v:textBlock v:margins="rect(4,4,4,4)"/>
			<v:textRect cx="54" cy="1529.6" width="108" height="36.8038"/>
			<rect x="0" y="1511.2" width="108" height="36.8038" rx="9" ry="9" class="st1"/>
			<text x="6.27" y="1526" class="st4" v:langID="1033"><v:paragraph v:horizAlign="1"/><v:tabList/>Apply inverse OTSU <tspan
						x="38.26" dy="1.2em" class="st5">thresh</tspan></text>		</g>
		<g id="shape7-23" v:mID="7" v:groupContext="shape" transform="translate(252,-1211.41)">
			<title>Action.7</title>
			<desc>Morphological adjustment</desc>
			<v:userDefs>
				<v:ud v:nameU="visVersion" v:prompt="" v:val="VT0(15):26"/>
			</v:userDefs>
			<v:textBlock v:margins="rect(4,4,4,4)"/>
			<v:textRect cx="54" cy="1527.2" width="108" height="41.6033"/>
			<rect x="0" y="1506.4" width="108" height="41.6033" rx="9" ry="9" class="st1"/>
			<text x="13.49" y="1523" class="st4" v:langID="1033"><v:paragraph v:horizAlign="1"/><v:tabList/>M<tspan class="st6">orphological </tspan><tspan
						x="23.28" dy="1.2em" class="st6">adjustment</tspan></text>		</g>
		<g id="shape10-28" v:mID="10" v:groupContext="shape" transform="translate(252,-1143.41)">
			<title>Action.10</title>
			<desc>Vertial and horizontal line detetction</desc>
			<v:userDefs>
				<v:ud v:nameU="visVersion" v:prompt="" v:val="VT0(15):26"/>
			</v:userDefs>
			<v:textBlock v:margins="rect(4,4,4,4)"/>
			<v:textRect cx="54" cy="1522.4" width="108" height="51.2039"/>
			<rect x="0" y="1496.8" width="108" height="51.2039" rx="9" ry="9" class="st1"/>
			<text x="27.35" y="1511.6" class="st4" v:langID="1033"><v:paragraph v:horizAlign="1"/><v:tabList/>Vertial and <tspan
						x="19.02" dy="1.2em" class="st5">horizontal line </tspan><tspan x="28.62" dy="1.2em" class="st5">detetction</tspan></text>		</g>
		<g id="shape11-33" v:mID="11" v:groupContext="shape" transform="translate(252,-1075.41)">
			<title>Action.11</title>
			<desc>Mearg horizontal and vertial lines wit bitwise or</desc>
			<v:userDefs>
				<v:ud v:nameU="visVersion" v:prompt="" v:val="VT0(15):26"/>
			</v:userDefs>
			<v:textBlock v:margins="rect(4,4,4,4)"/>
			<v:textRect cx="54" cy="1522.4" width="108" height="51.2039"/>
			<rect x="0" y="1496.8" width="108" height="51.2039" rx="9" ry="9" class="st1"/>
			<text x="12.01" y="1511.6" class="st4" v:langID="1033"><v:paragraph v:horizAlign="1"/><v:tabList/>Mearg horizontal <tspan
						x="6.41" dy="1.2em" class="st5">and vertial lines wit </tspan><tspan x="29.85" dy="1.2em" class="st5">bitwise or</tspan></text>		</g>
		<g id="shape12-38" v:mID="12" v:groupContext="shape" transform="translate(252,-1007.41)">
			<title>Action.12</title>
			<desc>Detect edges with canny edge detection</desc>
			<v:userDefs>
				<v:ud v:nameU="visVersion" v:prompt="" v:val="VT0(15):26"/>
			</v:userDefs>
			<v:textBlock v:margins="rect(4,4,4,4)"/>
			<v:textRect cx="54" cy="1522.4" width="108" height="51.2039"/>
			<rect x="0" y="1496.8" width="108" height="51.2039" rx="9" ry="9" class="st1"/>
			<text x="9.95" y="1511.6" class="st4" v:langID="1033"><v:paragraph v:horizAlign="1"/><v:tabList/>Detect edges with <tspan
						x="26.26" dy="1.2em" class="st5">canny edge </tspan><tspan x="30.63" dy="1.2em" class="st5">detection</tspan></text>		</g>
		<g id="shape13-43" v:mID="13" v:groupContext="shape" transform="translate(252,-865.404)">
			<title>Action.13</title>
			<desc>loc = Get location of bounding box</desc>
			<v:userDefs>
				<v:ud v:nameU="visVersion" v:prompt="" v:val="VT0(15):26"/>
			</v:userDefs>
			<v:textBlock v:margins="rect(4,4,4,4)"/>
			<v:textRect cx="54" cy="1529.6" width="108" height="36.8038"/>
			<rect x="0" y="1511.2" width="108" height="36.8038" rx="9" ry="9" class="st1"/>
			<text x="5.08" y="1526" class="st4" v:langID="1033"><v:paragraph v:horizAlign="1"/><v:tabList/>loc = Get location of <tspan
						x="20.6" dy="1.2em" class="st5">bounding box </tspan> </text>		</g>
		<g id="shape14-47" v:mID="14" v:groupContext="shape" transform="translate(288,-729)">
			<title>Decision</title>
			<desc>area &#60; loc &#60; 1000</desc>
			<v:userDefs>
				<v:ud v:nameU="visVersion" v:prompt="" v:val="VT0(15):26"/>
			</v:userDefs>
			<v:textBlock v:margins="rect(4,4,4,4)"/>
			<v:textRect cx="18" cy="1559.2" width="93.66" height="22.4037"/>
			<path d="M18 1548 L36 1530 L18 1512 L0 1530 L18 1548 Z" class="st1"/>
			<text x="-23.47" y="1562.8" class="st4" v:langID="1033"><v:paragraph v:horizAlign="1"/><v:tabList/>area &#60; loc &#60; 1000</text>		</g>
		<g id="shape15-50" v:mID="15" v:groupContext="shape" transform="translate(252,-922.008)">
			<title>Action.15</title>
			<desc>avg_area = get avarage area of canny edges cordinates = []</desc>
			<v:userDefs>
				<v:ud v:nameU="visVersion" v:prompt="" v:val="VT0(15):26"/>
			</v:userDefs>
			<v:textBlock v:margins="rect(4,4,4,4)"/>
			<v:textRect cx="54" cy="1515.2" width="108" height="65.604"/>
			<rect x="0" y="1482.4" width="108" height="65.604" rx="9" ry="9" class="st1"/>
			<text x="18.26" y="1497.2" class="st4" v:langID="1033"><v:paragraph v:horizAlign="1"/><v:tabList/>avg_area = get <tspan
						x="16.23" dy="1.2em" class="st5">avarage area of </tspan><tspan x="23.92" dy="1.2em" class="st5">canny edges<v:newlineChar/></tspan><tspan
						x="18.93" dy="1.2em" class="st5">cordinates = []</tspan></text>		</g>
		<g id="shape16-56" v:mID="16" v:groupContext="shape" transform="translate(252,-801.6)">
			<title>Action.16</title>
			<desc>area = get area of bounding box</desc>
			<v:userDefs>
				<v:ud v:nameU="visVersion" v:prompt="" v:val="VT0(15):26"/>
			</v:userDefs>
			<v:textBlock v:margins="rect(4,4,4,4)"/>
			<v:textRect cx="54" cy="1529.6" width="108" height="36.8038"/>
			<rect x="0" y="1511.2" width="108" height="36.8038" rx="9" ry="9" class="st1"/>
			<text x="11.12" y="1526" class="st4" v:langID="1033"><v:paragraph v:horizAlign="1"/><v:tabList/>area = get area of <tspan
						x="20.6" dy="1.2em" class="st5">bounding box</tspan></text>		</g>
		<g id="shape17-60" v:mID="17" v:groupContext="shape" transform="translate(252,-629.196)">
			<title>Action.17</title>
			<desc>push loc to cordinates</desc>
			<v:userDefs>
				<v:ud v:nameU="visVersion" v:prompt="" v:val="VT0(15):26"/>
			</v:userDefs>
			<v:textBlock v:margins="rect(4,4,4,4)"/>
			<v:textRect cx="54" cy="1529.6" width="108" height="36.8038"/>
			<rect x="0" y="1511.2" width="108" height="36.8038" rx="9" ry="9" class="st1"/>
			<text x="27.23" y="1526" class="st4" v:langID="1033"><v:paragraph v:horizAlign="1"/><v:tabList/>push loc to <tspan
						x="28.31" dy="1.2em" class="st5">cordinates</tspan></text>		</g>
		<g id="shape18-64" v:mID="18" v:groupContext="shape" transform="translate(252,-477.804)">
			<title>Action.18</title>
			<desc>sort cordinates</desc>
			<v:userDefs>
				<v:ud v:nameU="visVersion" v:prompt="" v:val="VT0(15):26"/>
			</v:userDefs>
			<v:textBlock v:margins="rect(4,4,4,4)"/>
			<v:textRect cx="54" cy="1530" width="108" height="36"/>
			<rect x="0" y="1512" width="108" height="36" rx="9" ry="9" class="st1"/>
			<text x="17.34" y="1533.6" class="st4" v:langID="1033"><v:paragraph v:horizAlign="1"/><v:tabList/>sort cordinates</text>		</g>
		<g id="shape19-67" v:mID="19" v:groupContext="shape" transform="translate(252,-414)">
			<title>Action.19</title>
			<desc>crop and save images</desc>
			<v:userDefs>
				<v:ud v:nameU="visVersion" v:prompt="" v:val="VT0(15):26"/>
			</v:userDefs>
			<v:textBlock v:margins="rect(4,4,4,4)"/>
			<v:textRect cx="54" cy="1529.6" width="108" height="36.8038"/>
			<rect x="0" y="1511.2" width="108" height="36.8038" rx="9" ry="9" class="st1"/>
			<text x="20.25" y="1526" class="st4" v:langID="1033"><v:paragraph v:horizAlign="1"/><v:tabList/>crop and save <tspan
						x="36.8" dy="1.2em" class="st5">images </tspan> </text>		</g>
		<g id="shape21-71" v:mID="21" v:groupContext="shape" v:layerMember="0" transform="translate(297,-1494)">
			<title>Dynamic connector</title>
			<path d="M9 1548 L9 1574.6" class="st3"/>
		</g>
		<g id="shape22-74" v:mID="22" v:groupContext="shape" v:layerMember="0" transform="translate(297,-1431.2)">
			<title>Dynamic connector.22</title>
			<path d="M9 1548.6 L9 1565.4" class="st3"/>
		</g>
		<g id="shape23-77" v:mID="23" v:groupContext="shape" v:layerMember="0" transform="translate(297,-1377.6)">
			<title>Dynamic connector.23</title>
			<path d="M9 1548.6 L9 1565.4" class="st3"/>
		</g>
		<g id="shape24-80" v:mID="24" v:groupContext="shape" v:layerMember="0" transform="translate(297,-1324)">
			<title>Dynamic connector.24</title>
			<path d="M9 1548.6 L9 1565.4" class="st3"/>
		</g>
		<g id="shape25-83" v:mID="25" v:groupContext="shape" v:layerMember="0" transform="translate(297,-1270.41)">
			<title>Dynamic connector.25</title>
			<path d="M9 1548.6 L9 1565.4" class="st3"/>
		</g>
		<g id="shape26-86" v:mID="26" v:groupContext="shape" v:layerMember="0" transform="translate(297,-1212.01)">
			<title>Dynamic connector.26</title>
			<path d="M9 1548.6 L9 1565.4" class="st3"/>
		</g>
		<g id="shape27-89" v:mID="27" v:groupContext="shape" v:layerMember="0" transform="translate(297,-1144.01)">
			<title>Dynamic connector.27</title>
			<path d="M9 1548.6 L9 1565.4" class="st3"/>
		</g>
		<g id="shape28-92" v:mID="28" v:groupContext="shape" v:layerMember="0" transform="translate(297,-1076.01)">
			<title>Dynamic connector.28</title>
			<path d="M9 1548.6 L9 1565.4" class="st3"/>
		</g>
		<g id="shape29-95" v:mID="29" v:groupContext="shape" v:layerMember="0" transform="translate(297,-1007.41)">
			<title>Dynamic connector.29</title>
			<path d="M9 1548 L9 1567.8" class="st3"/>
		</g>
		<g id="shape30-98" v:mID="30" v:groupContext="shape" v:layerMember="0" transform="translate(297,-922.008)">
			<title>Dynamic connector.30</title>
			<path d="M9 1548 L9 1567.8" class="st3"/>
		</g>
		<g id="shape31-101" v:mID="31" v:groupContext="shape" v:layerMember="0" transform="translate(297,-865.404)">
			<title>Dynamic connector.31</title>
			<path d="M9 1548 L9 1575" class="st3"/>
		</g>
		<g id="shape33-104" v:mID="33" v:groupContext="shape" v:layerMember="0" transform="translate(297,-801.6)">
			<title>Dynamic connector.33</title>
			<path d="M9 1548 L9 1584.6" class="st3"/>
		</g>
		<g id="shape34-107" v:mID="34" v:groupContext="shape" v:layerMember="0" transform="translate(297,-729)">
			<title>Dynamic connector.34</title>
			<desc>Yes</desc>
			<v:textBlock v:margins="rect(4,4,4,4)"/>
			<v:textRect cx="9" cy="1579.5" width="40" height="17.6036"/>
			<path d="M9 1548 L9 1611" class="st3"/>
			<rect v:rectContext="textBkgnd" x="3.49619" y="1574.7" width="11.0078" height="9.59985" class="st7"/>
			<text x="3.5" y="1581.9" class="st8" v:langID="1033"><v:paragraph v:horizAlign="1"/><v:tabList/>Yes</text>		</g>
		<g id="shape36-112" v:mID="36" v:groupContext="shape" transform="translate(288,-576.804)">
			<title>Decision.36</title>
			<desc>End of canny edges</desc>
			<v:userDefs>
				<v:ud v:nameU="visVersion" v:prompt="" v:val="VT0(15):26"/>
			</v:userDefs>
			<v:textBlock v:margins="rect(4,4,4,4)"/>
			<v:textRect cx="18" cy="1559.2" width="107.48" height="22.4037"/>
			<path d="M18 1548 L36 1530 L18 1512 L0 1530 L18 1548 Z" class="st1"/>
			<text x="-29.02" y="1562.8" class="st4" v:langID="1033"><v:paragraph v:horizAlign="1"/><v:tabList/>End of canny edges  </text>		</g>
		<g id="shape37-115" v:mID="37" v:groupContext="shape" v:layerMember="0" transform="translate(297,-630)">
			<title>Dynamic connector.37</title>
			<path d="M9 1548.8 L9 1565.2" class="st3"/>
		</g>
		<g id="shape38-118" v:mID="38" v:groupContext="shape" v:layerMember="0" transform="translate(297,-576.804)">
			<title>Dynamic connector.38</title>
			<desc>Yes</desc>
			<v:textBlock v:margins="rect(4,4,4,4)"/>
			<v:textRect cx="9" cy="1579.5" width="40" height="17.6036"/>
			<path d="M9 1548 L9 1611" class="st3"/>
			<rect v:rectContext="textBkgnd" x="3.49619" y="1574.7" width="11.0078" height="9.59985" class="st7"/>
			<text x="3.5" y="1581.9" class="st8" v:langID="1033"><v:paragraph v:horizAlign="1"/><v:tabList/>Yes</text>		</g>
		<g id="shape39-123" v:mID="39" v:groupContext="shape" v:layerMember="0" transform="translate(288,-594.804)">
			<title>Dynamic connector.39</title>
			<desc>NO</desc>
			<v:textBlock v:margins="rect(4,4,4,4)"/>
			<v:textRect cx="-49.5" cy="1421.5" width="40" height="17.6036"/>
			<path d="M0 1548 L-49.5 1548 L-49.5 1259 L-36 1259" class="st3"/>
			<rect v:rectContext="textBkgnd" x="-54.7305" y="1416.7" width="10.4609" height="9.59985" class="st7"/>
			<text x="-54.73" y="1423.9" class="st8" v:langID="1033"><v:paragraph v:horizAlign="1"/><v:tabList/>NO</text>		</g>
		<g id="shape40-128" v:mID="40" v:groupContext="shape" v:layerMember="0" transform="translate(315,-747)">
			<title>Dynamic connector.40</title>
			<desc>No</desc>
			<v:textBlock v:margins="rect(4,4,4,4)"/>
			<v:textRect cx="58.5" cy="1624.1" width="40" height="17.6036"/>
			<path d="M9 1548 L58.5 1548 L58.5 1700.2 L9 1700.2" class="st3"/>
			<rect v:rectContext="textBkgnd" x="53.8086" y="1619.3" width="9.38287" height="9.59985" class="st7"/>
			<text x="53.81" y="1626.5" class="st8" v:langID="1033"><v:paragraph v:horizAlign="1"/><v:tabList/>No</text>		</g>
		<g id="shape41-133" v:mID="41" v:groupContext="shape" v:layerMember="0" transform="translate(297,-477.804)">
			<title>Dynamic connector.41</title>
			<path d="M9 1548 L9 1575" class="st3"/>
		</g>
		<g id="shape42-136" v:mID="42" v:groupContext="shape" v:layerMember="0" transform="translate(297,-414)">
			<title>Dynamic connector.42</title>
			<path d="M9 1548 L9 1575" class="st3"/>
		</g>
	</g>
</svg>
